<svg version="1.1" id="Layer_1" xmlns="http://www.w3.org/2000/svg" xmlns:xlink="http://www.w3.org/1999/xlink" x="0px" y="0px"
	 width="100%" viewBox="0 0 2664 1008" enable-background="new 0 0 2664 1008" xml:space="preserve">
<path fill="#000000" opacity="1.000000" stroke="none" 
	d="
M1670.000000,1009.000000 
	C1113.333374,1009.000000 557.166687,1009.000000 1.000000,1009.000000 
	C1.000000,673.000000 1.000000,337.000000 1.000000,1.000000 
	C889.000000,1.000000 1777.000000,1.000000 2665.000000,1.000000 
	C2665.000000,337.000000 2665.000000,673.000000 2665.000000,1009.000000 
	C2333.500000,1009.000000 2002.000000,1009.000000 1670.000000,1009.000000 
M652.175232,303.979767 
	C652.192627,390.632385 652.209229,477.285004 652.234924,563.937622 
	C652.235352,565.266846 652.348938,566.596069 652.311218,568.391357 
	C652.423523,568.709717 652.632751,568.940125 652.990295,569.988037 
	C653.333069,574.088745 653.180115,578.305359 654.106384,582.269714 
	C657.697998,597.641357 667.354919,607.440918 682.972839,609.753723 
	C694.331177,611.435669 708.870972,607.469238 717.189453,593.839111 
	C722.627747,584.928345 723.270630,575.010559 723.270264,564.954224 
	C723.268372,509.816925 723.300964,454.679596 723.258118,399.542328 
	C723.231812,365.729309 723.124878,331.916229 722.988464,298.103424 
	C722.920227,281.193207 712.584656,264.187592 693.343750,261.552094 
	C678.875305,259.570312 665.144043,265.289734 657.966736,278.162842 
	C653.838318,285.567688 652.576538,293.573151 652.547668,302.196503 
	C652.273804,302.436127 652.203674,302.725189 652.175232,303.979767 
M1068.718384,577.082214 
	C1068.604004,585.576355 1068.446533,594.070251 1068.384277,602.564758 
	C1068.255981,620.047058 1067.877686,637.535767 1068.221191,655.009644 
	C1068.368896,662.523804 1069.512573,670.131592 1071.184082,677.473755 
	C1073.242310,686.514526 1076.925903,694.811279 1086.986206,697.994141 
	C1095.434204,700.667053 1103.963135,701.037903 1112.530273,698.933960 
	C1118.513306,697.464661 1123.434326,694.233582 1127.187622,689.219238 
	C1133.910400,680.237915 1135.788452,669.727722 1135.808838,659.039917 
	C1135.980591,569.076355 1135.963257,479.112213 1135.781250,389.148743 
	C1135.770020,383.624664 1134.549438,377.874603 1132.740356,372.626587 
	C1127.816162,358.341553 1113.936035,350.273987 1098.076782,352.036530 
	C1083.241577,353.685303 1072.598633,364.005707 1070.036987,378.031586 
	C1069.287720,382.134583 1069.006958,386.323181 1068.436768,391.097443 
	C1063.844482,381.482422 1058.201904,373.583099 1049.601807,367.883820 
	C1026.112549,352.317657 1000.505066,349.681152 973.525696,354.800964 
	C950.741272,359.124664 931.713806,370.364960 916.875183,387.873138 
	C898.606873,409.428009 890.156799,435.344574 888.234070,463.099030 
	C886.856201,482.987549 887.097717,503.040375 892.024231,522.664307 
	C897.127930,542.994385 905.505005,561.775574 919.954590,577.158386 
	C943.270813,601.980530 972.089233,612.755310 1006.097473,609.011841 
	C1031.142090,606.255005 1052.440674,596.483337 1068.190430,576.042236 
	C1068.356934,576.083801 1068.523438,576.125305 1068.718384,577.082214 
M1965.660889,594.195312 
	C1992.843750,579.540283 2011.885986,557.991821 2020.466797,528.069458 
	C2025.852417,509.289886 2027.706177,489.875092 2027.791138,470.405304 
	C2028.024536,416.908325 2027.918335,363.409668 2027.860474,309.911804 
	C2027.854858,304.766541 2027.568237,299.578003 2026.868286,294.484314 
	C2022.778076,264.718964 1994.307251,254.263519 1971.683350,265.223572 
	C1957.816895,271.941071 1952.307373,284.722137 1952.145508,299.211670 
	C1951.474121,359.326050 1951.454346,419.447479 1950.891479,479.563507 
	C1950.816895,487.540771 1949.561890,495.623383 1947.876221,503.446625 
	C1943.404175,524.201477 1931.982666,539.160583 1910.564331,544.511658 
	C1895.447144,548.288330 1879.968750,548.218750 1864.729980,545.757080 
	C1844.997803,542.569580 1830.693115,531.550903 1824.728394,512.168823 
	C1821.538330,501.802643 1819.273560,490.709290 1819.151855,479.915283 
	C1818.514893,423.424805 1818.753052,366.924866 1818.522461,310.428894 
	C1818.495361,303.804169 1818.137939,297.036499 1816.747070,290.591125 
	C1813.655640,276.266174 1805.354492,266.038849 1790.672119,262.414917 
	C1776.510010,258.919434 1763.551147,261.432587 1753.177979,272.393677 
	C1744.665771,281.388489 1742.170654,292.938904 1742.171509,304.620575 
	C1742.175903,362.912079 1742.379883,421.207764 1743.217529,479.491913 
	C1743.412476,493.059265 1745.271484,506.829102 1748.235596,520.087585 
	C1756.873169,558.722412 1778.941040,586.410950 1817.270142,599.233337 
	C1849.331177,609.958740 1882.345581,611.762695 1915.798706,608.163330 
	C1932.966675,606.316101 1949.480103,602.247437 1965.660889,594.195312 
M308.096649,389.864746 
	C306.740540,401.277740 304.458374,412.674591 304.258698,424.107788 
	C303.999084,438.977234 304.495544,453.984619 306.286591,468.735962 
	C308.998444,491.070984 315.983154,512.247131 326.661804,532.218201 
	C349.869720,575.621521 385.868896,600.878479 434.371429,607.773987 
	C453.597992,610.507324 473.059631,610.869263 492.493896,608.068481 
	C528.249329,602.915466 558.371948,587.694580 581.056885,559.153076 
	C595.646484,540.796814 605.505432,520.351440 605.935486,496.353729 
	C606.252563,478.663055 596.384644,466.576447 576.824280,462.663452 
	C563.809570,460.059845 550.588440,464.352600 543.036072,480.917816 
	C538.914917,489.956970 535.451538,499.325836 530.873718,508.120331 
	C522.935547,523.370422 511.523499,535.028137 495.101532,541.601074 
	C479.708496,547.762207 463.989502,548.164612 447.982513,545.996765 
	C429.588562,543.505554 414.517670,534.881531 403.112091,520.243713 
	C387.803497,500.596771 382.795410,477.255402 381.243347,453.278656 
	C380.046387,434.787628 380.845612,416.170807 384.878204,397.848907 
	C388.533325,381.241821 394.249268,365.638824 404.990417,352.212006 
	C421.393707,331.707306 442.823761,323.233948 468.927979,323.805603 
	C491.827118,324.307007 509.877747,333.318359 523.226868,351.377594 
	C530.586975,361.334686 536.735168,372.213531 543.104126,382.871429 
	C554.166626,401.383575 576.688660,402.973846 590.186462,393.526886 
	C603.199707,384.419098 607.202454,371.300873 604.430359,356.165253 
	C599.970459,331.814117 586.460999,312.582397 567.911316,297.138763 
	C529.929565,265.516876 485.611359,256.258514 437.568390,263.220184 
	C417.128876,266.182007 397.733551,273.123901 379.995819,284.032257 
	C361.210358,295.584930 345.381500,310.480103 333.207336,328.765839 
	C320.996552,347.106598 312.811707,367.373260 308.096649,389.864746 
M2159.036621,593.482056 
	C2163.589355,586.822266 2165.800537,579.288208 2165.889404,571.391235 
	C2166.221924,541.898499 2166.226074,512.402039 2166.351562,482.906982 
	C2166.359863,480.960449 2166.352783,479.013855 2166.352783,476.803253 
	C2168.484375,476.697510 2169.956055,476.572968 2171.428711,476.559204 
	C2192.424316,476.363373 2213.424316,476.387207 2234.414307,475.941925 
	C2256.387939,475.475739 2277.735596,471.671234 2297.697021,461.994598 
	C2323.001221,449.728149 2339.196777,430.026672 2346.117676,402.636658 
	C2349.230469,390.316681 2349.656006,377.875946 2348.953125,365.339935 
	C2348.507812,357.401398 2348.471436,349.285797 2346.710938,341.602631 
	C2340.195801,313.171082 2324.240234,291.923523 2297.667236,278.881317 
	C2280.081543,270.250092 2261.164307,267.645264 2242.164062,267.246246 
	C2204.516602,266.455658 2166.838135,266.745636 2129.178711,267.158966 
	C2117.813965,267.283722 2107.162842,271.038696 2099.414062,280.146637 
	C2091.994873,288.867004 2090.143555,299.673218 2090.116211,310.517487 
	C2089.915039,390.178009 2089.979980,469.839294 2090.058105,549.500244 
	C2090.066895,558.445679 2090.221680,567.438538 2091.151123,576.321228 
	C2091.979004,584.230042 2094.696289,591.734619 2100.336670,597.727783 
	C2117.120117,615.560730 2143.331299,613.931152 2159.036621,593.482056 
M1497.648315,583.881348 
	C1504.864746,588.270752 1511.738647,593.404053 1519.360596,596.912537 
	C1543.983643,608.247131 1569.937012,611.543335 1596.911621,609.126648 
	C1617.471436,607.284668 1636.801758,601.979309 1654.502563,591.421021 
	C1670.128418,582.100464 1683.048584,569.985718 1689.405396,552.406677 
	C1692.213745,544.640503 1692.471191,536.393799 1688.885376,528.649719 
	C1682.309570,514.448669 1657.573730,513.522156 1647.934814,522.648315 
	C1641.329956,528.902039 1634.454224,534.874084 1627.609619,540.869263 
	C1612.609253,554.008240 1595.786255,561.460632 1575.175781,559.237610 
	C1562.712402,557.893311 1552.134888,553.427979 1543.565308,544.478638 
	C1532.068359,532.472229 1526.523071,517.955566 1525.745239,500.797424 
	C1528.294678,500.797424 1530.243530,500.798767 1532.192261,500.797180 
	C1568.678833,500.767365 1605.166260,500.874603 1641.651367,500.630615 
	C1653.969971,500.548218 1666.183960,499.246521 1677.698242,494.081940 
	C1685.513672,490.576538 1690.526001,484.885986 1692.988281,476.773407 
	C1696.615723,464.821655 1695.904053,452.566681 1693.558838,440.759308 
	C1682.977051,387.481049 1641.806152,356.523499 1592.961060,352.303253 
	C1579.175781,351.112213 1564.935791,352.229279 1551.184814,354.222198 
	C1524.092407,358.148621 1500.959473,370.114227 1482.994385,391.417389 
	C1463.810791,414.165344 1455.539307,440.870300 1454.136475,469.975250 
	C1453.622803,480.634460 1454.331543,491.392181 1455.077759,502.063354 
	C1456.215210,518.329285 1461.039062,533.646179 1468.441895,548.138306 
	C1475.483276,561.923035 1485.187988,573.577026 1497.648315,583.881348 
M2476.502197,227.002258 
	C2469.797852,213.612671 2463.093506,200.223083 2455.982422,186.020660 
	C2424.960449,248.086273 2394.384033,309.260773 2363.442627,371.165955 
	C2379.550293,371.165955 2394.639648,371.165955 2410.000000,371.165955 
	C2410.000000,373.372742 2410.000000,375.178833 2410.000000,376.984924 
	C2410.000000,451.453705 2409.997314,525.922485 2410.010010,600.391296 
	C2410.010498,603.386230 2409.792969,606.443848 2410.293945,609.366455 
	C2414.904785,636.269592 2441.146729,653.355652 2467.663330,646.924194 
	C2486.748535,642.295288 2502.171875,622.299683 2502.106689,603.286316 
	C2501.847656,527.818909 2502.000000,452.349976 2502.000000,376.881622 
	C2502.000000,374.964813 2502.000000,373.048004 2502.000000,370.731201 
	C2517.743896,370.731201 2532.782959,370.731201 2548.290771,370.731201 
	C2524.337402,322.681702 2500.643799,275.153351 2476.502197,227.002258 
M1250.689209,367.919067 
	C1248.732300,365.453552 1247.146240,362.528259 1244.755737,360.600403 
	C1233.011353,351.128723 1219.898804,349.153564 1206.015869,355.065247 
	C1191.927734,361.064362 1186.354492,373.343323 1186.197998,387.379791 
	C1185.681519,433.705231 1185.969238,480.040253 1186.092896,526.371216 
	C1186.105103,530.945496 1187.206177,535.507996 1187.632935,540.091736 
	C1188.750610,552.096863 1194.520508,562.270996 1200.362915,572.376465 
	C1206.331177,582.699402 1213.525391,592.005798 1224.227417,597.913330 
	C1250.352905,612.334900 1277.733765,612.378967 1305.278320,603.546692 
	C1322.162354,598.132629 1336.854736,588.831909 1345.650757,571.946289 
	C1346.588013,576.735718 1347.196167,580.991943 1348.269165,585.127563 
	C1352.861328,602.826660 1370.260742,613.023743 1386.584717,609.128174 
	C1402.578247,605.311462 1412.791382,592.857483 1412.914185,574.979614 
	C1413.155518,539.816528 1413.086182,504.651093 1413.091553,469.486633 
	C1413.095703,442.488525 1413.182373,415.488647 1412.894653,388.493164 
	C1412.779663,377.718811 1409.727783,367.492065 1401.289795,360.293396 
	C1389.858154,350.540833 1376.436646,349.075165 1362.970703,355.173492 
	C1349.379395,361.328583 1343.378906,373.202118 1343.066040,387.705383 
	C1342.208252,427.456421 1341.903320,467.220978 1340.776855,506.963135 
	C1340.579590,513.922668 1338.890869,521.646790 1335.404297,527.548828 
	C1326.368652,542.844604 1312.567017,551.539124 1294.296509,552.280762 
	C1281.085327,552.816956 1269.699219,548.849609 1264.389648,536.265625 
	C1260.534546,527.128479 1257.658325,516.871155 1257.422974,507.039673 
	C1256.533813,469.894989 1256.946167,432.720032 1256.766724,395.556885 
	C1256.721436,386.205536 1255.863647,376.946747 1250.689209,367.919067 
M847.800720,436.500031 
	C847.801941,421.675262 847.947754,406.848633 847.758484,392.026306 
	C847.608154,380.254333 845.146545,369.107697 835.774475,360.945099 
	C824.182983,350.849518 810.772827,349.025574 797.022217,355.169983 
	C782.927429,361.468170 777.158752,373.958527 777.100830,388.696136 
	C776.862671,449.326965 776.931763,509.959503 777.125549,570.590698 
	C777.142456,575.886658 778.389282,581.328247 779.928101,586.442444 
	C785.059448,603.496155 798.029724,609.170410 809.267944,609.864624 
	C825.440552,610.863647 838.786316,602.717957 843.828674,588.333801 
	C846.357300,581.120422 847.567505,573.096741 847.630859,565.425049 
	C847.983032,522.785828 847.800354,480.142181 847.800720,436.500031 
M794.427673,268.910461 
	C791.606445,271.119019 788.655090,273.181641 785.986511,275.561310 
	C774.315796,285.968353 774.155029,307.272980 782.828735,319.138123 
	C792.669678,332.599884 813.943237,337.205963 829.229309,329.187042 
	C847.538635,319.582092 849.877869,305.702637 845.922363,287.671478 
	C841.351501,266.835510 814.002747,257.197052 794.427673,268.910461 
z"/>
<path fill="#E97132" opacity="1.000000" stroke="none" 
	d="
M1965.341064,594.386963 
	C1949.480103,602.247437 1932.966675,606.316101 1915.798706,608.163330 
	C1882.345581,611.762695 1849.331177,609.958740 1817.270142,599.233337 
	C1778.941040,586.410950 1756.873169,558.722412 1748.235596,520.087585 
	C1745.271484,506.829102 1743.412476,493.059265 1743.217529,479.491913 
	C1742.379883,421.207764 1742.175903,362.912079 1742.171509,304.620575 
	C1742.170654,292.938904 1744.665771,281.388489 1753.177979,272.393677 
	C1763.551147,261.432587 1776.510010,258.919434 1790.672119,262.414917 
	C1805.354492,266.038849 1813.655640,276.266174 1816.747070,290.591125 
	C1818.137939,297.036499 1818.495361,303.804169 1818.522461,310.428894 
	C1818.753052,366.924866 1818.514893,423.424805 1819.151855,479.915283 
	C1819.273560,490.709290 1821.538330,501.802643 1824.728394,512.168823 
	C1830.693115,531.550903 1844.997803,542.569580 1864.729980,545.757080 
	C1879.968750,548.218750 1895.447144,548.288330 1910.564331,544.511658 
	C1931.982666,539.160583 1943.404175,524.201477 1947.876221,503.446625 
	C1949.561890,495.623383 1950.816895,487.540771 1950.891479,479.563507 
	C1951.454346,419.447479 1951.474121,359.326050 1952.145508,299.211670 
	C1952.307373,284.722137 1957.816895,271.941071 1971.683350,265.223572 
	C1994.307251,254.263519 2022.778076,264.718964 2026.868286,294.484314 
	C2027.568237,299.578003 2027.854858,304.766541 2027.860474,309.911804 
	C2027.918335,363.409668 2028.024536,416.908325 2027.791138,470.405304 
	C2027.706177,489.875092 2025.852417,509.289886 2020.466797,528.069458 
	C2011.885986,557.991821 1992.843750,579.540283 1965.341064,594.386963 
z"/>
<path fill="#E87132" opacity="1.000000" stroke="none" 
	d="
M308.282532,389.471924 
	C312.811707,367.373260 320.996552,347.106598 333.207336,328.765839 
	C345.381500,310.480103 361.210358,295.584930 379.995819,284.032257 
	C397.733551,273.123901 417.128876,266.182007 437.568390,263.220184 
	C485.611359,256.258514 529.929565,265.516876 567.911316,297.138763 
	C586.460999,312.582397 599.970459,331.814117 604.430359,356.165253 
	C607.202454,371.300873 603.199707,384.419098 590.186462,393.526886 
	C576.688660,402.973846 554.166626,401.383575 543.104126,382.871429 
	C536.735168,372.213531 530.586975,361.334686 523.226868,351.377594 
	C509.877747,333.318359 491.827118,324.307007 468.927979,323.805603 
	C442.823761,323.233948 421.393707,331.707306 404.990417,352.212006 
	C394.249268,365.638824 388.533325,381.241821 384.878204,397.848907 
	C380.845612,416.170807 380.046387,434.787628 381.243347,453.278656 
	C382.795410,477.255402 387.803497,500.596771 403.112091,520.243713 
	C414.517670,534.881531 429.588562,543.505554 447.982513,545.996765 
	C463.989502,548.164612 479.708496,547.762207 495.101532,541.601074 
	C511.523499,535.028137 522.935547,523.370422 530.873718,508.120331 
	C535.451538,499.325836 538.914917,489.956970 543.036072,480.917816 
	C550.588440,464.352600 563.809570,460.059845 576.824280,462.663452 
	C596.384644,466.576447 606.252563,478.663055 605.935486,496.353729 
	C605.505432,520.351440 595.646484,540.796814 581.056885,559.153076 
	C558.371948,587.694580 528.249329,602.915466 492.493896,608.068481 
	C473.059631,610.869263 453.597992,610.507324 434.371429,607.773987 
	C385.868896,600.878479 349.869720,575.621521 326.661804,532.218201 
	C315.983154,512.247131 308.998444,491.070984 306.286591,468.735962 
	C304.495544,453.984619 303.999084,438.977234 304.258698,424.107788 
	C304.458374,412.674591 306.740540,401.277740 308.282532,389.471924 
z"/>
<path fill="#E97132" opacity="1.000000" stroke="none" 
	d="
M2158.890869,593.815063 
	C2143.331299,613.931152 2117.120117,615.560730 2100.336670,597.727783 
	C2094.696289,591.734619 2091.979004,584.230042 2091.151123,576.321228 
	C2090.221680,567.438538 2090.066895,558.445679 2090.058105,549.500244 
	C2089.979980,469.839294 2089.915039,390.178009 2090.116211,310.517487 
	C2090.143555,299.673218 2091.994873,288.867004 2099.414062,280.146637 
	C2107.162842,271.038696 2117.813965,267.283722 2129.178711,267.158966 
	C2166.838135,266.745636 2204.516602,266.455658 2242.164062,267.246246 
	C2261.164307,267.645264 2280.081543,270.250092 2297.667236,278.881317 
	C2324.240234,291.923523 2340.195801,313.171082 2346.710938,341.602631 
	C2348.471436,349.285797 2348.507812,357.401398 2348.953125,365.339935 
	C2349.656006,377.875946 2349.230469,390.316681 2346.117676,402.636658 
	C2339.196777,430.026672 2323.001221,449.728149 2297.697021,461.994598 
	C2277.735596,471.671234 2256.387939,475.475739 2234.414307,475.941925 
	C2213.424316,476.387207 2192.424316,476.363373 2171.428711,476.559204 
	C2169.956055,476.572968 2168.484375,476.697510 2166.352783,476.803253 
	C2166.352783,479.013855 2166.359863,480.960449 2166.351562,482.906982 
	C2166.226074,512.402039 2166.221924,541.898499 2165.889404,571.391235 
	C2165.800537,579.288208 2163.589355,586.822266 2158.890869,593.815063 
M2166.397461,354.499878 
	C2166.397461,375.255341 2166.397461,396.010803 2166.397461,417.000488 
	C2181.481934,417.000488 2195.809814,417.295135 2210.120117,416.914429 
	C2223.409912,416.560822 2236.676025,415.378387 2249.110840,410.012177 
	C2256.302734,406.908630 2262.636963,402.597046 2266.708740,395.667480 
	C2272.889648,385.148804 2273.826904,373.879364 2272.172363,361.930756 
	C2270.026855,346.437500 2261.141357,334.380798 2245.944824,331.077728 
	C2233.084717,328.282440 2219.800293,326.985046 2206.633057,326.183472 
	C2193.413330,325.378723 2180.106201,326.006561 2166.397949,326.006561 
	C2166.397949,335.564301 2166.397949,344.532074 2166.397461,354.499878 
z"/>
<path fill="#E97132" opacity="1.000000" stroke="none" 
	d="
M1067.788086,575.720886 
	C1052.440674,596.483337 1031.142090,606.255005 1006.097473,609.011841 
	C972.089233,612.755310 943.270813,601.980530 919.954590,577.158386 
	C905.505005,561.775574 897.127930,542.994385 892.024231,522.664307 
	C887.097717,503.040375 886.856201,482.987549 888.234070,463.099030 
	C890.156799,435.344574 898.606873,409.428009 916.875183,387.873138 
	C931.713806,370.364960 950.741272,359.124664 973.525696,354.800964 
	C1000.505066,349.681152 1026.112549,352.317657 1049.601807,367.883820 
	C1058.201904,373.583099 1063.844482,381.482422 1068.436768,391.097443 
	C1069.006958,386.323181 1069.287720,382.134583 1070.036987,378.031586 
	C1072.598633,364.005707 1083.241577,353.685303 1098.076782,352.036530 
	C1113.936035,350.273987 1127.816162,358.341553 1132.740356,372.626587 
	C1134.549438,377.874603 1135.770020,383.624664 1135.781250,389.148743 
	C1135.963257,479.112213 1135.980591,569.076355 1135.808838,659.039917 
	C1135.788452,669.727722 1133.910400,680.237915 1127.187622,689.219238 
	C1123.434326,694.233582 1118.513306,697.464661 1112.530273,698.933960 
	C1103.963135,701.037903 1095.434204,700.667053 1086.986206,697.994141 
	C1076.925903,694.811279 1073.242310,686.514526 1071.184082,677.473755 
	C1069.512573,670.131592 1068.368896,662.523804 1068.221191,655.009644 
	C1067.877686,637.535767 1068.255981,620.047058 1068.384277,602.564758 
	C1068.446533,594.070251 1068.604004,585.576355 1068.811279,576.398376 
	C1068.822266,575.408936 1068.740479,575.103333 1068.658691,574.797729 
	C1068.368530,575.105469 1068.078247,575.413147 1067.788086,575.720886 
M1004.320618,407.736206 
	C991.094421,409.307251 980.851440,416.166748 973.325684,426.670349 
	C959.367615,446.151550 956.709045,468.392609 958.963623,491.571564 
	C960.179321,504.070709 963.038696,516.102722 969.255005,527.204468 
	C977.391968,541.736328 989.343445,551.104248 1006.020142,552.874817 
	C1028.275757,555.237793 1049.861816,541.043213 1058.124268,520.138855 
	C1064.606079,503.739502 1066.628052,486.967865 1065.215210,469.437164 
	C1064.132446,456.001221 1060.988403,443.320374 1053.992798,431.897522 
	C1042.889160,413.766632 1026.434082,405.685364 1004.320618,407.736206 
z"/>
<path fill="#E87132" opacity="1.000000" stroke="none" 
	d="
M1497.378418,583.647461 
	C1485.187988,573.577026 1475.483276,561.923035 1468.441895,548.138306 
	C1461.039062,533.646179 1456.215210,518.329285 1455.077759,502.063354 
	C1454.331543,491.392181 1453.622803,480.634460 1454.136475,469.975250 
	C1455.539307,440.870300 1463.810791,414.165344 1482.994385,391.417389 
	C1500.959473,370.114227 1524.092407,358.148621 1551.184814,354.222198 
	C1564.935791,352.229279 1579.175781,351.112213 1592.961060,352.303253 
	C1641.806152,356.523499 1682.977051,387.481049 1693.558838,440.759308 
	C1695.904053,452.566681 1696.615723,464.821655 1692.988281,476.773407 
	C1690.526001,484.885986 1685.513672,490.576538 1677.698242,494.081940 
	C1666.183960,499.246521 1653.969971,500.548218 1641.651367,500.630615 
	C1605.166260,500.874603 1568.678833,500.767365 1532.192261,500.797180 
	C1530.243530,500.798767 1528.294678,500.797424 1525.745239,500.797424 
	C1526.523071,517.955566 1532.068359,532.472229 1543.565308,544.478638 
	C1552.134888,553.427979 1562.712402,557.893311 1575.175781,559.237610 
	C1595.786255,561.460632 1612.609253,554.008240 1627.609619,540.869263 
	C1634.454224,534.874084 1641.329956,528.902039 1647.934814,522.648315 
	C1657.573730,513.522156 1682.309570,514.448669 1688.885376,528.649719 
	C1692.471191,536.393799 1692.213745,544.640503 1689.405396,552.406677 
	C1683.048584,569.985718 1670.128418,582.100464 1654.502563,591.421021 
	C1636.801758,601.979309 1617.471436,607.284668 1596.911621,609.126648 
	C1569.937012,611.543335 1543.983643,608.247131 1519.360596,596.912537 
	C1511.738647,593.404053 1504.864746,588.270752 1497.378418,583.647461 
M1619.249634,429.344452 
	C1615.303223,424.287476 1611.923706,418.622650 1607.290771,414.301788 
	C1598.023193,405.658325 1586.414062,404.011230 1573.998657,403.823944 
	C1546.299805,403.406128 1526.965576,431.033142 1526.297974,456.272705 
	C1559.445435,456.272705 1592.590698,456.272705 1626.074585,456.272705 
	C1626.051025,446.465576 1623.460449,438.074493 1619.249634,429.344452 
z"/>
<path fill="#A6CAEC" opacity="1.000000" stroke="none" 
	d="
M2476.726318,227.313644 
	C2500.643799,275.153351 2524.337402,322.681702 2548.290771,370.731201 
	C2532.782959,370.731201 2517.743896,370.731201 2502.000000,370.731201 
	C2502.000000,373.048004 2502.000000,374.964813 2502.000000,376.881622 
	C2502.000000,452.349976 2501.847656,527.818909 2502.106689,603.286316 
	C2502.171875,622.299683 2486.748535,642.295288 2467.663330,646.924194 
	C2441.146729,653.355652 2414.904785,636.269592 2410.293945,609.366455 
	C2409.792969,606.443848 2410.010498,603.386230 2410.010010,600.391296 
	C2409.997314,525.922485 2410.000000,451.453705 2410.000000,376.984924 
	C2410.000000,375.178833 2410.000000,373.372742 2410.000000,371.165955 
	C2394.639648,371.165955 2379.550293,371.165955 2363.442627,371.165955 
	C2394.384033,309.260773 2424.960449,248.086273 2455.982422,186.020660 
	C2463.093506,200.223083 2469.797852,213.612671 2476.726318,227.313644 
M2440.265381,597.275330 
	C2449.741455,604.362915 2460.916992,604.917725 2469.945557,598.749023 
	C2478.613770,592.826416 2482.779297,582.035461 2480.230713,572.104675 
	C2477.563232,561.709717 2468.861572,554.180725 2458.316895,553.143982 
	C2447.981689,552.127930 2437.648926,558.162842 2433.281006,567.765625 
	C2428.766357,577.691772 2431.157471,588.494202 2440.265381,597.275330 
z"/>
<path fill="#E97132" opacity="1.000000" stroke="none" 
	d="
M1250.853271,368.249573 
	C1255.863647,376.946747 1256.721436,386.205536 1256.766724,395.556885 
	C1256.946167,432.720032 1256.533813,469.894989 1257.422974,507.039673 
	C1257.658325,516.871155 1260.534546,527.128479 1264.389648,536.265625 
	C1269.699219,548.849609 1281.085327,552.816956 1294.296509,552.280762 
	C1312.567017,551.539124 1326.368652,542.844604 1335.404297,527.548828 
	C1338.890869,521.646790 1340.579590,513.922668 1340.776855,506.963135 
	C1341.903320,467.220978 1342.208252,427.456421 1343.066040,387.705383 
	C1343.378906,373.202118 1349.379395,361.328583 1362.970703,355.173492 
	C1376.436646,349.075165 1389.858154,350.540833 1401.289795,360.293396 
	C1409.727783,367.492065 1412.779663,377.718811 1412.894653,388.493164 
	C1413.182373,415.488647 1413.095703,442.488525 1413.091553,469.486633 
	C1413.086182,504.651093 1413.155518,539.816528 1412.914185,574.979614 
	C1412.791382,592.857483 1402.578247,605.311462 1386.584717,609.128174 
	C1370.260742,613.023743 1352.861328,602.826660 1348.269165,585.127563 
	C1347.196167,580.991943 1346.588013,576.735718 1345.650757,571.946289 
	C1336.854736,588.831909 1322.162354,598.132629 1305.278320,603.546692 
	C1277.733765,612.378967 1250.352905,612.334900 1224.227417,597.913330 
	C1213.525391,592.005798 1206.331177,582.699402 1200.362915,572.376465 
	C1194.520508,562.270996 1188.750610,552.096863 1187.632935,540.091736 
	C1187.206177,535.507996 1186.105103,530.945496 1186.092896,526.371216 
	C1185.969238,480.040253 1185.681519,433.705231 1186.197998,387.379791 
	C1186.354492,373.343323 1191.927734,361.064362 1206.015869,355.065247 
	C1219.898804,349.153564 1233.011353,351.128723 1244.755737,360.600403 
	C1247.146240,362.528259 1248.732300,365.453552 1250.853271,368.249573 
z"/>
<path fill="#E97132" opacity="1.000000" stroke="none" 
	d="
M652.409668,567.925293 
	C652.348938,566.596069 652.235352,565.266846 652.234924,563.937622 
	C652.209229,477.285004 652.192627,390.632385 652.445496,303.389038 
	C652.926208,302.541809 652.999695,302.250702 652.936279,301.924957 
	C652.576538,293.573151 653.838318,285.567688 657.966736,278.162842 
	C665.144043,265.289734 678.875305,259.570312 693.343750,261.552094 
	C712.584656,264.187592 722.920227,281.193207 722.988464,298.103424 
	C723.124878,331.916229 723.231812,365.729309 723.258118,399.542328 
	C723.300964,454.679596 723.268372,509.816925 723.270264,564.954224 
	C723.270630,575.010559 722.627747,584.928345 717.189453,593.839111 
	C708.870972,607.469238 694.331177,611.435669 682.972839,609.753723 
	C667.354919,607.440918 657.697998,597.641357 654.106384,582.269714 
	C653.180115,578.305359 653.333069,574.088745 652.968689,569.307739 
	C652.881409,568.306580 652.702271,568.072510 652.409668,567.925293 
z"/>
<path fill="#E97132" opacity="1.000000" stroke="none" 
	d="
M847.800659,437.000061 
	C847.800354,480.142181 847.983032,522.785828 847.630859,565.425049 
	C847.567505,573.096741 846.357300,581.120422 843.828674,588.333801 
	C838.786316,602.717957 825.440552,610.863647 809.267944,609.864624 
	C798.029724,609.170410 785.059448,603.496155 779.928101,586.442444 
	C778.389282,581.328247 777.142456,575.886658 777.125549,570.590698 
	C776.931763,509.959503 776.862671,449.326965 777.100830,388.696136 
	C777.158752,373.958527 782.927429,361.468170 797.022217,355.169983 
	C810.772827,349.025574 824.182983,350.849518 835.774475,360.945099 
	C845.146545,369.107697 847.608154,380.254333 847.758484,392.026306 
	C847.947754,406.848633 847.801941,421.675262 847.800659,437.000061 
z"/>
<path fill="#E87032" opacity="1.000000" stroke="none" 
	d="
M794.726440,268.673645 
	C814.002747,257.197052 841.351501,266.835510 845.922363,287.671478 
	C849.877869,305.702637 847.538635,319.582092 829.229309,329.187042 
	C813.943237,337.205963 792.669678,332.599884 782.828735,319.138123 
	C774.155029,307.272980 774.315796,285.968353 785.986511,275.561310 
	C788.655090,273.181641 791.606445,271.119019 794.726440,268.673645 
z"/>
<path fill="#663116" opacity="1.000000" stroke="none" 
	d="
M1067.989258,575.881592 
	C1068.078247,575.413147 1068.368530,575.105469 1068.658691,574.797729 
	C1068.740479,575.103333 1068.822266,575.408936 1068.797119,575.940674 
	C1068.523438,576.125305 1068.356934,576.083801 1067.989258,575.881592 
z"/>
<path fill="#A04F1F" opacity="1.000000" stroke="none" 
	d="
M652.741943,302.060730 
	C652.999695,302.250702 652.926208,302.541809 652.526489,302.931000 
	C652.203674,302.725189 652.273804,302.436127 652.741943,302.060730 
z"/>
<path fill="#A04F1F" opacity="1.000000" stroke="none" 
	d="
M652.360474,568.158325 
	C652.702271,568.072510 652.881409,568.306580 652.942993,568.854980 
	C652.632751,568.940125 652.423523,568.709717 652.360474,568.158325 
z"/>
<path fill="#000000" opacity="1.000000" stroke="none" 
	d="
M2166.397705,353.999878 
	C2166.397949,344.532074 2166.397949,335.564301 2166.397949,326.006561 
	C2180.106201,326.006561 2193.413330,325.378723 2206.633057,326.183472 
	C2219.800293,326.985046 2233.084717,328.282440 2245.944824,331.077728 
	C2261.141357,334.380798 2270.026855,346.437500 2272.172363,361.930756 
	C2273.826904,373.879364 2272.889648,385.148804 2266.708740,395.667480 
	C2262.636963,402.597046 2256.302734,406.908630 2249.110840,410.012177 
	C2236.676025,415.378387 2223.409912,416.560822 2210.120117,416.914429 
	C2195.809814,417.295135 2181.481934,417.000488 2166.397461,417.000488 
	C2166.397461,396.010803 2166.397461,375.255341 2166.397705,353.999878 
z"/>
<path fill="#000000" opacity="1.000000" stroke="none" 
	d="
M1004.751953,407.650818 
	C1026.434082,405.685364 1042.889160,413.766632 1053.992798,431.897522 
	C1060.988403,443.320374 1064.132446,456.001221 1065.215210,469.437164 
	C1066.628052,486.967865 1064.606079,503.739502 1058.124268,520.138855 
	C1049.861816,541.043213 1028.275757,555.237793 1006.020142,552.874817 
	C989.343445,551.104248 977.391968,541.736328 969.255005,527.204468 
	C963.038696,516.102722 960.179321,504.070709 958.963623,491.571564 
	C956.709045,468.392609 959.367615,446.151550 973.325684,426.670349 
	C980.851440,416.166748 991.094421,409.307251 1004.751953,407.650818 
z"/>
<path fill="#000000" opacity="1.000000" stroke="none" 
	d="
M1619.461426,429.655640 
	C1623.460449,438.074493 1626.051025,446.465576 1626.074585,456.272705 
	C1592.590698,456.272705 1559.445435,456.272705 1526.297974,456.272705 
	C1526.965576,431.033142 1546.299805,403.406128 1573.998657,403.823944 
	C1586.414062,404.011230 1598.023193,405.658325 1607.290771,414.301788 
	C1611.923706,418.622650 1615.303223,424.287476 1619.461426,429.655640 
z"/>
<path fill="#E87234" opacity="1.000000" stroke="none" 
	d="
M2439.988281,597.045654 
	C2431.157471,588.494202 2428.766357,577.691772 2433.281006,567.765625 
	C2437.648926,558.162842 2447.981689,552.127930 2458.316895,553.143982 
	C2468.861572,554.180725 2477.563232,561.709717 2480.230713,572.104675 
	C2482.779297,582.035461 2478.613770,592.826416 2469.945557,598.749023 
	C2460.916992,604.917725 2449.741455,604.362915 2439.988281,597.045654 
z"/>
</svg>